<svg width="37" height="37" viewBox="0 0 37 37" fill="none" xmlns="http://www.w3.org/2000/svg">
<path d="M12.4615 36.231V27.9885H11.8845C8.63317 28.0398 5.83967 27.0083 3.504 24.894C1.168 22.78 0 20.1486 0 17C0 13.9306 1.066 11.3365 3.198 9.21747C5.33 7.09814 7.93067 6.03847 11 6.03847H15.6885L11.1845 1.52297L12.246 0.422974L18.631 6.80747L12.246 13.1925L11.1845 12.0925L15.6885 7.57697H11C8.38733 7.57697 6.15717 8.49431 4.3095 10.329C2.46217 12.1636 1.5385 14.3873 1.5385 17C1.5385 19.7076 2.5365 21.9615 4.5325 23.7615C6.52883 25.5615 8.90267 26.4615 11.654 26.4615H14V32.481L20.031 26.4615H25.0115C27.6498 26.4615 29.8908 25.5441 31.7345 23.7095C33.5782 21.8748 34.5 19.6345 34.5 16.9885C34.5 14.3501 33.5763 12.1155 31.729 10.2845C29.8813 8.45381 27.6383 7.53847 25 7.53847H23.619V5.99997H25C28.0617 5.99997 30.6668 7.06597 32.8155 9.19797C34.9642 11.33 36.0385 13.9268 36.0385 16.9885C36.0385 20.0321 34.966 22.6283 32.821 24.777C30.6763 26.9256 28.0732 28 25.0115 28H20.704L12.4615 36.231Z" fill="#B49B6B"/>
</svg>
