<svg width="36" height="36" viewBox="0 0 36 36" fill="none" xmlns="http://www.w3.org/2000/svg">
<path d="M9.99991 33.231V12.769C9.99991 11.9997 10.2652 11.3458 10.7959 10.8075C11.3266 10.2692 11.9842 10 12.7689 10H33.2309C33.9789 10 34.6274 10.2745 35.1764 10.8235C35.7254 11.3725 35.9999 12.021 35.9999 12.769V27.154L27.1539 36H12.7689C12.0209 36 11.3724 35.7255 10.8234 35.1765C10.2744 34.6275 9.99991 33.979 9.99991 33.231ZM0.0499134 6.82699C-0.0910866 6.07066 0.0609132 5.38033 0.505913 4.75599C0.95058 4.13133 1.55108 3.7485 2.30741 3.6075L22.4574 0.0614936C23.2141 -0.0795064 23.9046 0.0704936 24.5289 0.511494C25.1532 0.952494 25.5359 1.55116 25.6769 2.3075L26.2459 5.69249H24.7074L24.1229 2.39599C24.0716 2.11399 23.9177 1.88966 23.6614 1.723C23.4051 1.55633 23.1231 1.49866 22.8154 1.54999L2.58841 5.123C2.25508 5.17433 1.99225 5.34749 1.79991 5.64249C1.60758 5.93716 1.53708 6.25116 1.58841 6.5845L5.69241 29.777V29.119C5.17941 29.027 4.73708 28.7898 4.36541 28.4075C3.99341 28.0255 3.74375 27.5508 3.61641 26.9835L0.0499134 6.82699ZM11.5384 12.769V33.231C11.5384 33.5897 11.6537 33.8845 11.8844 34.1155C12.1154 34.3462 12.4102 34.4615 12.7689 34.4615H26.1689L34.4614 26.169V12.769C34.4614 12.4103 34.3461 12.1155 34.1154 11.8845C33.8844 11.6538 33.5896 11.5385 33.2309 11.5385H12.7689C12.4102 11.5385 12.1154 11.6538 11.8844 11.8845C11.6537 12.1155 11.5384 12.4103 11.5384 12.769ZM22.2309 29.769H23.7689V23.769H29.7689V22.231H23.7689V16.231H22.2309V22.231H16.2309V23.769H22.2309V29.769Z" fill="#B49B6B"/>
</svg>
