<svg width="36" height="36" viewBox="0 0 36 36" fill="none" xmlns="http://www.w3.org/2000/svg">
<path d="M12.35 17.7345L17.004 13.081L12.446 8.52296L10.046 10.9615L8.946 9.86146L11.3845 7.46146L6.7885 2.87696L2.1345 7.53096L12.35 17.7345ZM28.419 33.827L33.073 29.1615L28.477 24.5655L26.077 27.004L24.977 25.904L27.377 23.504L22.9075 18.996L18.254 23.65L28.419 33.827ZM7.9925 34H2V28.0075L11.2385 18.769L0 7.53096L6.7385 0.730957L18.077 12.019L27.631 2.46546C27.8027 2.29346 27.982 2.17296 28.169 2.10396C28.3563 2.03462 28.5563 1.99996 28.769 1.99996C28.9563 1.99996 29.1437 2.03462 29.331 2.10396C29.518 2.17296 29.6973 2.29346 29.869 2.46546L33.5345 6.24596C33.7065 6.41796 33.8207 6.59746 33.877 6.78446C33.9333 6.97179 33.9615 7.15896 33.9615 7.34596C33.9615 7.55896 33.9333 7.75262 33.877 7.92696C33.8207 8.10129 33.7065 8.27429 33.5345 8.44596L24.0575 17.923L35.269 29.2115L28.519 35.9885L17.2425 24.75L7.9925 34ZM3.5385 32.4615H7.3075L26.996 12.7615L23.227 8.99246L3.5385 28.6925V32.4615Z" fill="#B49B6B"/>
</svg>
