<svg width="35" height="28" viewBox="0 0 35 28" fill="none" xmlns="http://www.w3.org/2000/svg">
<path d="M8.07704 26.077H17.154C17.4104 26.077 17.6282 25.9872 17.8075 25.8075C17.9872 25.6282 18.077 25.4104 18.077 25.154V23.154C18.077 22.8977 17.9872 22.6797 17.8075 22.5C17.6282 22.3207 17.4104 22.231 17.154 22.231H8.07704C7.82071 22.231 7.60271 22.3207 7.42304 22.5C7.24371 22.6797 7.15404 22.8977 7.15404 23.154V25.154C7.15404 25.4104 7.24371 25.6282 7.42304 25.8075C7.60271 25.9872 7.82071 26.077 8.07704 26.077ZM7.65404 10.769H17.1155C17.2745 10.769 17.4232 10.6994 17.5615 10.56C17.6999 10.4204 17.769 10.2704 17.769 10.11C17.769 9.94936 17.6999 9.80119 17.5615 9.66552C17.4232 9.52952 17.2745 9.46152 17.1155 9.46152H7.65404C7.49504 9.46152 7.34621 9.53135 7.20754 9.67102C7.06921 9.81035 7.00004 9.96035 7.00004 10.121C7.00004 10.2814 7.06921 10.4295 7.20754 10.5655C7.34621 10.7012 7.49504 10.769 7.65404 10.769ZM7.65404 6.53852H17.1155C17.2745 6.53852 17.4232 6.46869 17.5615 6.32902C17.6999 6.18969 17.769 6.03969 17.769 5.87902C17.769 5.71869 17.6999 5.57052 17.5615 5.43452C17.4232 5.29885 17.2745 5.23102 17.1155 5.23102H7.65404C7.49504 5.23102 7.34621 5.30069 7.20754 5.44002C7.06921 5.57969 7.00004 5.72969 7.00004 5.89002C7.00004 6.05069 7.06921 6.19885 7.20754 6.33452C7.34621 6.47052 7.49504 6.53852 7.65404 6.53852ZM24 12.3845V10.846H27.231C27.59 10.846 27.8849 10.7307 28.1155 10.5C28.3462 10.2694 28.4615 9.97452 28.4615 9.61552V6.38452C28.4615 6.02552 28.3462 5.73069 28.1155 5.50002C27.8849 5.26935 27.59 5.15402 27.231 5.15402H24V3.61552H27.231C27.9727 3.61552 28.6195 3.89152 29.1715 4.44352C29.7239 4.99585 30 5.64285 30 6.38452V7.23102H33.6155C33.8335 7.23102 34.0162 7.30485 34.1635 7.45252C34.3109 7.60019 34.3845 7.78319 34.3845 8.00152C34.3845 8.22119 34.3109 8.40402 34.1635 8.55002C34.0162 8.69602 33.8335 8.76902 33.6155 8.76902H30V9.61552C30 10.3572 29.7239 11.0042 29.1715 11.5565C28.6195 12.1085 27.9727 12.3845 27.231 12.3845H24ZM16.3845 20.6925H14.846V14.077H21.231C21.5897 14.077 21.8845 13.9617 22.1155 13.731C22.3462 13.5 22.4615 13.205 22.4615 12.846V3.15402C22.4615 2.79502 22.3462 2.50002 22.1155 2.26902C21.8845 2.03835 21.5897 1.92302 21.231 1.92302H6.76904C5.51738 1.92302 4.46088 2.35369 3.59954 3.21502C2.73821 4.07602 2.30754 5.13252 2.30754 6.38452V9.61552C2.30754 10.8675 2.73821 11.924 3.59954 12.785C4.46088 13.6464 5.51738 14.077 6.76904 14.077H10.3845V20.6925H8.84604V15.6155H6.76904C5.11904 15.6155 3.70654 15.028 2.53154 13.853C1.35654 12.678 0.769043 11.2655 0.769043 9.61552V6.38452C0.769043 4.73452 1.35654 3.32202 2.53154 2.14702C3.70654 0.972021 5.11904 0.384521 6.76904 0.384521H21.231C21.9727 0.384521 22.6195 0.660689 23.1715 1.21302C23.7239 1.76536 24 2.41236 24 3.15402V12.846C24 13.5877 23.7239 14.2347 23.1715 14.787C22.6195 15.3394 21.9727 15.6155 21.231 15.6155H16.3845V20.6925ZM7.71154 27.6155C7.12921 27.6155 6.63421 27.4117 6.22654 27.004C5.81921 26.5964 5.61554 26.1015 5.61554 25.5195V22.75C5.61554 22.1784 5.81921 21.6925 6.22654 21.2925C6.63421 20.8925 7.12921 20.6925 7.71154 20.6925H17.5575C18.1292 20.6925 18.615 20.8925 19.015 21.2925C19.4154 21.6925 19.6155 22.1784 19.6155 22.75V25.5195C19.6155 26.1015 19.4154 26.5964 19.015 27.004C18.615 27.4117 18.1292 27.6155 17.5575 27.6155H7.71154ZM17.154 26.077H7.15404H18.077H17.154Z" fill="#B49B6B"/>
</svg>
