<svg width="32" height="36" viewBox="0 0 32 36" fill="none" xmlns="http://www.w3.org/2000/svg">
<path d="M15.231 34.1075V18.427L1.5385 10.5115V25.5C1.5385 25.705 1.58983 25.8973 1.6925 26.077C1.79483 26.2563 1.94867 26.4102 2.154 26.5385L15.231 34.1075ZM16.769 34.1075L29.846 26.5385C30.0513 26.4102 30.2052 26.2563 30.3075 26.077C30.4102 25.8973 30.4615 25.705 30.4615 25.5V10.5L16.769 18.427V34.1075ZM14.6155 35.519L1.3845 27.869C0.9435 27.628 0.6025 27.287 0.3615 26.846C0.1205 26.405 0 25.9435 0 25.4615V10.5385C0 10.0565 0.1205 9.59499 0.3615 9.15399C0.6025 8.71299 0.9435 8.37199 1.3845 8.13099L14.6155 0.480988C15.0565 0.239654 15.518 0.118988 16 0.118988C16.482 0.118988 16.9435 0.239654 17.3845 0.480988L30.6155 8.13099C31.0565 8.37199 31.3975 8.71299 31.6385 9.15399C31.8795 9.59499 32 10.0565 32 10.5385V25.4615C32 25.9435 31.8795 26.405 31.6385 26.846C31.3975 27.287 31.0565 27.628 30.6155 27.869L17.3845 35.519C16.9435 35.7603 16.482 35.881 16 35.881C15.518 35.881 15.0565 35.7603 14.6155 35.519ZM23.5075 12.769L29.531 9.28099L16.6155 1.81149C16.4102 1.70882 16.205 1.65749 16 1.65749C15.795 1.65749 15.5898 1.70882 15.3845 1.81149L10.054 4.87699L23.5075 12.769ZM16 17.146L22.0075 13.6345L8.4655 5.81899L2.4575 9.28099L16 17.146Z" fill="#B49B6B"/>
</svg>
