<svg width="16" height="18" viewBox="0 0 16 18" fill="none" xmlns="http://www.w3.org/2000/svg">
<path d="M7.5 16.7135V9.28659L1 5.52312V12.6039C1 12.7065 1.02564 12.8026 1.07692 12.8923C1.12821 12.9821 1.20513 13.059 1.3077 13.1231L7.5 16.7135ZM8.5 16.7135L14.6923 13.1231C14.7949 13.059 14.8718 12.9821 14.9231 12.8923C14.9744 12.8026 15 12.7065 15 12.6039V5.52312L8.5 9.28659V16.7135ZM8 8.42697L14.425 4.71349L8.3077 1.17312C8.20513 1.10902 8.10257 1.07697 8 1.07697C7.89743 1.07697 7.79487 1.10902 7.6923 1.17312L1.575 4.71349L8 8.42697ZM0.807675 14.0077C0.555125 13.8629 0.357375 13.6661 0.214425 13.4173C0.0714749 13.1686 0 12.8994 0 12.6097V5.39042C0 5.10068 0.0714749 4.83146 0.214425 4.58274C0.357375 4.33401 0.555125 4.13721 0.807675 3.99234L7.1923 0.313492C7.44487 0.168625 7.7141 0.0961914 8 0.0961914C8.2859 0.0961914 8.55513 0.168625 8.8077 0.313492L15.1923 3.99234C15.4449 4.13721 15.6426 4.33401 15.7856 4.58274C15.9285 4.83146 16 5.10068 16 5.39042V12.6097C16 12.8994 15.9285 13.1686 15.7856 13.4173C15.6426 13.6661 15.4449 13.8629 15.1923 14.0077L8.8077 17.6866C8.55513 17.8315 8.2859 17.9039 8 17.9039C7.7141 17.9039 7.44487 17.8315 7.1923 17.6866L0.807675 14.0077Z" fill="white"/>
</svg>
