<svg width="10" height="17" viewBox="0 0 10 17" fill="none" xmlns="http://www.w3.org/2000/svg">
<path d="M0.134625 16.9231L0 15.8769L2.58077 8.75768C2.71539 8.87563 2.85482 8.9689 2.99905 9.0375C3.14327 9.10608 3.2923 9.16282 3.44615 9.2077L0.926925 16.1808L0.134625 16.9231ZM9.86537 16.9231L9.07307 16.1808L6.55385 9.2077C6.7077 9.16282 6.85673 9.10608 7.00095 9.0375C7.14518 8.9689 7.28461 8.87563 7.41922 8.75768L10 15.8769L9.86537 16.9231ZM5 7.5C4.30768 7.5 3.71794 7.25641 3.23077 6.76922C2.74359 6.28206 2.5 5.69232 2.5 5C2.5 4.35 2.70353 3.80609 3.11058 3.36828C3.51763 2.93044 3.98077 2.66923 4.5 2.58463V0H5.5V2.58463C6.01923 2.66923 6.48238 2.93044 6.88943 3.36828C7.29648 3.80609 7.5 4.35 7.5 5C7.5 5.69232 7.25641 6.28206 6.76922 6.76922C6.28206 7.25641 5.69232 7.5 5 7.5ZM5 6.5C5.41153 6.5 5.76442 6.35288 6.05865 6.05865C6.35288 5.76442 6.5 5.41153 6.5 5C6.5 4.58847 6.35288 4.23558 6.05865 3.94135C5.76442 3.64712 5.41153 3.5 5 3.5C4.58847 3.5 4.23558 3.64712 3.94135 3.94135C3.64712 4.23558 3.5 4.58847 3.5 5C3.5 5.41153 3.64712 5.76442 3.94135 6.05865C4.23558 6.35288 4.58847 6.5 5 6.5Z" fill="white"/>
</svg>
