<svg width="24" height="25" viewBox="0 0 24 25" fill="none" xmlns="http://www.w3.org/2000/svg">
<path d="M12.0191 15.9186C9.82277 15.9186 8.03625 14.1616 8.03625 12.0026C8.03625 9.84317 9.82277 8.08651 12.0191 8.08651C14.215 8.08651 16.0019 9.84317 16.0019 12.0026C16.0019 14.162 14.2153 15.9186 12.0191 15.9186Z" fill="white"/>
<path fill-rule="evenodd" clip-rule="evenodd" d="M6.90806 0C3.09917 0 0 3.09878 0 6.90806V17.1853C0 20.9942 3.09878 24.0934 6.90806 24.0934H17.0919C20.9012 24.0934 24 20.9942 24 17.1853V6.90806C24 3.09917 20.9012 0 17.0919 0H6.90806ZM12.0191 5.80426C8.56502 5.80426 5.75438 8.58466 5.75438 12.0026C5.75438 15.4201 8.56464 18.2005 12.0191 18.2005C15.4731 18.2005 18.2837 15.4201 18.2837 12.0026C18.2837 8.58466 15.4731 5.80426 12.0191 5.80426ZM19.8699 5.55101C19.8699 6.36509 19.21 7.02504 18.3959 7.02504C17.5818 7.02504 16.9219 6.36509 16.9219 5.55101C16.9219 4.73698 17.5818 4.07702 18.3959 4.07702C19.21 4.07702 19.8699 4.73698 19.8699 5.55101Z" fill="white"/>
</svg>
