<svg width="122" height="24" viewBox="0 0 122 24" fill="none" xmlns="http://www.w3.org/2000/svg">
<path d="M0.683748 24V0.959999H14.7638V5.312H5.03575V10.304H12.8437V14.656H5.03575V24H0.683748ZM15.1 24L22.14 0.959999H28.636L35.676 24H31.196L24.924 3.68H25.756L19.58 24H15.1ZM19.324 19.2V15.136H31.484V19.2H19.324ZM37.9037 24V0.959999H53.7118V5.024H42.2558V9.408H47.6318C47.8451 9.408 48.1437 9.41867 48.5278 9.44C48.9118 9.45067 49.2531 9.472 49.5518 9.504C50.8744 9.64267 51.9731 10.0533 52.8477 10.736C53.7331 11.408 54.3944 12.2667 54.8318 13.312C55.2798 14.3467 55.5037 15.4773 55.5037 16.704C55.5037 17.9307 55.2851 19.0667 54.8477 20.112C54.4104 21.1467 53.7491 22.0053 52.8638 22.688C51.9891 23.36 50.8851 23.7653 49.5518 23.904C49.2531 23.936 48.9118 23.9627 48.5278 23.984C48.1544 23.9947 47.8558 24 47.6318 24H37.9037ZM42.2558 19.936H47.4398C47.6638 19.936 47.9091 19.9253 48.1758 19.904C48.4424 19.8827 48.6878 19.8507 48.9118 19.808C49.7971 19.616 50.3838 19.2053 50.6718 18.576C50.9704 17.9467 51.1198 17.3227 51.1198 16.704C51.1198 16.0747 50.9704 15.4507 50.6718 14.832C50.3838 14.2027 49.7971 13.792 48.9118 13.6C48.6878 13.5467 48.4424 13.5147 48.1758 13.504C47.9091 13.4827 47.6638 13.472 47.4398 13.472H42.2558V19.936ZM58.0763 24V0.959999H67.8043C68.0283 0.959999 68.3269 0.970666 68.7003 0.991999C69.0843 1.00267 69.4256 1.03467 69.7243 1.088C71.1003 1.30133 72.2256 1.75467 73.1003 2.448C73.9856 3.14133 74.6363 4.016 75.0523 5.072C75.4683 6.11733 75.6763 7.28533 75.6763 8.576C75.6763 10.5067 75.1963 12.16 74.2363 13.536C73.2763 14.9013 71.7723 15.744 69.7243 16.064L67.8043 16.192H62.4283V24H58.0763ZM71.0683 24L66.5243 14.624L71.0043 13.76L75.9963 24H71.0683ZM62.4283 12.128H67.6123C67.8363 12.128 68.0816 12.1173 68.3483 12.096C68.6149 12.0747 68.8603 12.032 69.0843 11.968C69.6709 11.808 70.1243 11.5413 70.4443 11.168C70.7643 10.784 70.9829 10.3627 71.1003 9.904C71.2283 9.43467 71.2923 8.992 71.2923 8.576C71.2923 8.16 71.2283 7.72267 71.1003 7.264C70.9829 6.79467 70.7643 6.37333 70.4443 6C70.1243 5.616 69.6709 5.344 69.0843 5.184C68.8603 5.12 68.6149 5.07733 68.3483 5.056C68.0816 5.03467 67.8363 5.024 67.6123 5.024H62.4283V12.128ZM98.6905 24H94.2745V8.64L84.2585 24H79.8425V0.959999H84.2585V16.32L94.2745 0.959999H98.6905V24ZM102.515 24V0.959999H106.867V11.584L115.635 0.959999H120.947L111.315 12.32L121.555 24H116.051L106.867 13.504V24H102.515Z" fill="white"/>
</svg>
