<svg width="14" height="18" viewBox="0 0 14 18" fill="none" xmlns="http://www.w3.org/2000/svg">
<path d="M7 17.9615C4.99102 17.3654 3.32211 16.1484 1.99327 14.3106C0.664425 12.4727 0 10.4025 0 8.09998V2.69228L7 0.0769043L14 2.69228V8.09998C14 10.4025 13.3356 12.4727 12.0067 14.3106C10.6779 16.1484 9.00898 17.3654 7 17.9615ZM7 16.9C8.73333 16.35 10.1667 15.25 11.3 13.6C12.4333 11.95 13 10.1166 13 8.09998V3.37498L7 1.1442L1 3.37498V8.09998C1 10.1166 1.56667 11.95 2.7 13.6C3.83333 15.25 5.26667 16.35 7 16.9Z" fill="white"/>
</svg>
