<svg width="21" height="19" viewBox="0 0 21 19" fill="none" xmlns="http://www.w3.org/2000/svg">
<path d="M1.28747 8.27455C1.28747 8.27455 10.5753 4.10369 13.7964 2.63503C15.0313 2.04761 19.2188 0.167721 19.2188 0.167721C19.2188 0.167721 21.1516 -0.654661 20.9905 1.34263C20.9367 2.1651 20.5073 5.04356 20.0778 8.15706C19.4335 12.563 18.7356 17.38 18.7356 17.38C18.7356 17.38 18.6282 18.7312 17.7156 18.9662C16.8029 19.2011 15.2996 18.1438 15.0313 17.9087C14.8165 17.7325 11.0047 15.089 9.6089 13.7966C9.23308 13.4441 8.80361 12.7392 9.66254 11.9168C11.5953 9.97817 13.9038 7.56965 15.2996 6.04229C15.9439 5.33731 16.5881 3.69246 13.9038 5.68975C10.0921 8.56829 6.33402 11.2706 6.33402 11.2706C6.33402 11.2706 5.47501 11.858 3.86443 11.3293C2.25378 10.8006 0.374744 10.0957 0.374744 10.0957C0.374744 10.0957 -0.91366 9.21449 1.28747 8.27455Z" fill="white"/>
</svg>
