<svg width="27" height="27" viewBox="0 0 27 27" fill="none" xmlns="http://www.w3.org/2000/svg">
<path fill-rule="evenodd" clip-rule="evenodd" d="M13.232 0.0800781C16.7315 0.0813745 20.0163 1.44376 22.4861 3.91662C24.9563 6.38949 26.3156 9.676 26.3135 13.172C26.3104 20.3846 20.4414 26.2535 13.2315 26.2535H13.2263C11.0372 26.2527 8.88557 25.7035 6.97494 24.6611L0.0400391 26.4801L1.8961 19.701C0.751543 17.7175 0.149191 15.4668 0.150055 13.1611C0.152647 5.94817 6.02161 0.0800781 13.232 0.0800781ZM16.9625 14.837C17.2624 14.9461 18.8692 15.7366 19.1962 15.9003C19.2593 15.9319 19.3184 15.9605 19.3733 15.987C19.6022 16.0977 19.7567 16.1725 19.8226 16.2827C19.9042 16.4189 19.9042 17.0737 19.6318 17.8371C19.3594 18.6006 18.0538 19.2973 17.4256 19.3911C16.8621 19.4753 16.1497 19.5103 15.3666 19.2615C14.8917 19.1109 14.2832 18.91 13.5031 18.5731C10.4379 17.2494 8.36662 14.2782 7.97614 13.7181L7.97278 13.7132C7.94734 13.6767 7.92942 13.651 7.91924 13.6374L7.91799 13.6358C7.74963 13.4118 6.58436 11.861 6.58436 10.2562C6.58436 8.75121 7.32343 7.96214 7.66405 7.59848C7.68752 7.57343 7.70914 7.55037 7.72844 7.52925C8.02834 7.20184 8.38234 7.12024 8.60017 7.12024C8.81799 7.12024 9.03625 7.12197 9.22657 7.13157C9.25009 7.13277 9.27457 7.13262 9.29986 7.13243C9.49042 7.13128 9.72778 7.12984 9.96212 7.69249C10.0515 7.90721 10.1819 8.22474 10.3198 8.56026L10.3306 8.58654C10.61 9.26646 10.9159 10.0109 10.97 10.1195C11.0517 10.2832 11.1062 10.474 10.9971 10.6923C10.9805 10.7253 10.9652 10.7566 10.9505 10.7864L10.9503 10.7869C10.8687 10.9531 10.8085 11.0758 10.6701 11.2374C10.6158 11.3009 10.5596 11.3694 10.5034 11.4378L10.5028 11.4385C10.3904 11.5755 10.2779 11.7125 10.1799 11.8101C10.0162 11.973 9.84601 12.1498 10.0368 12.4771C10.2275 12.8041 10.8836 13.8744 11.8553 14.7413C12.8992 15.6729 13.8069 16.0666 14.2673 16.2663L14.2711 16.268C14.3595 16.3063 14.4312 16.3374 14.484 16.3639C14.8105 16.5276 15.0013 16.5005 15.192 16.2822C15.3828 16.064 16.0092 15.328 16.227 15.0006C16.4448 14.6732 16.6631 14.7278 16.9625 14.837Z" fill="white"/>
</svg>
